<svg xmlns="http://www.w3.org/2000/svg" version="1.2" baseProfile="tiny-ps" width="100%" viewBox="0 0 6000 6000" height="150" xmlns:v="https://vecta.io/nano">
	<title>Sharkletas Logo BIMI Compressed</title>
	<path fill="#2caaff" d="M5592 6004H4.001V4.002l5999.998-.001.001 5999.998L5592 6004M2143 3268.798c7.153-8.34 10.91-18.182 12.856-28.853 10.086-55.302 13.968-111.044 11.148-167.178-4.332-86.243-20.5-170.534-42.865-253.743-6.47-24.073-17.443-46.009-32.426-65.975-19.451-25.919-44.641-43.556-75.575-53.063-33.124-10.181-66.957-11.578-100.911-6.42-41.528 6.31-74.856 26.757-99.152 61.326l-16.868 24.787c-41.179 64.131-62.893 134.982-70.98 210.181-4.558 42.379-7.613 84.93-10.729 127.448-2 27.293-1.433 54.61 2.558 81.784 3.71 25.264 9.992 49.638 23.885 71.473 10.292 16.174 23.643 29.821 41.789 35.755 21.587 7.059 44.333 9.898 67.107 5.396 20.603-4.073 37.416-14.518 47.137-33.615 11.033-21.673 17.622-44.567 14.624-69.375-.377-3.119.248-6.36.395-9.268 18.259-5.035 46.665-5.948 64.69-2.026.86 5.396 2.089 11.164 2.651 16.996 1.781 18.508 9.503 34.336 20.264 49.263 7.351 10.196 16.397 17.228 28.144 21.228 30.943 10.536 61.726 8.82 92.05-2.026 6.643-2.376 12.167-7.883 20.208-14.096m2692.406-103.405c2.311-38.62 2.857-77.289-.105-115.852-6.09-79.274-21.242-156.986-42.388-233.557-6.089-22.046-16.336-42.158-29.797-60.661-19.897-27.35-46.01-45.801-78.348-55.721-25.209-7.733-51.014-9.366-77.107-8.308-51.845 2.102-93.341 23.101-123.792 66.031-41.198 58.08-67.522 122.092-79.976 192.035-7.954 44.671-11.97 89.792-14.813 134.989-2.048 32.554-3.914 65.198-1.194 97.847 1.945 23.348 6.251 46.168 15.181 67.971 5.879 14.355 13.891 27.287 25.036 38.151 8.189 7.982 17.223 15.504 28.167 18.47 19.955 5.409 40.41 8.768 61.274 5.707 26.401-3.874 45.625-17.23 56.08-42.372 7.783-18.715 12.518-37.875 10.704-58.354-.386-4.353.393-8.809.676-13.966 20.968-2.813 40.736-3.992 60.625-2.049 1.705.166 3.246 2.013 3.919 2.457 2.196 12.11 2.983 23.62 6.457 34.252 10.499 32.14 30.463 54.108 66.189 58.084 20.801 2.315 41.321 1.286 61.411-4.32 22.39-6.248 37.386-20.254 41.153-43.94 3.869-24.319 7.011-48.754 10.651-76.897m-3185.916 30.423c16.977-69.568 26.354-140.087 25.141-211.763l-4.004-133.87c-.729-33.137-9.182-64.492-20.326-95.283-2.46-6.797-6.145-13.381-10.379-19.26-9.864-13.695-23.583-21.671-40.468-22.734-19.98-1.257-40.011-.867-59.732 3.123-5.117 1.035-10.3 2.984-14.79 5.635-11.542 6.816-21.695 15.453-30.198 25.895-11.374 13.968-17.421 29.824-16.472 48l4.968 89.779c.559 8.784-.349 17.118-2.459 25.653-3.401 13.756-13.006 19.328-25.656 21.7-8.684 1.628-15.894-.967-21.135-8.06-6.032-8.165-10.407-17.093-10.418-27.559-.007-6.661-.065-13.34.367-19.98l4.857-69.781c1.299-18.914-1.416-37.141-8.891-54.695-6.502-15.267-17.124-25.53-33.853-27.62-15.818-1.976-31.777-3.825-47.679-3.868-17.444-.048-34.238 4.518-50.056 12.297-19.49 9.585-33.445 23.875-39.486 45.158-1.636 5.765-3.522 11.468-4.929 17.288a417.36 417.36 0 0 0-11.702 97.024l1.205 209.879c.741 44.143 7.243 87.67 22.065 129.496 4.643 13.102 10.364 26.059 17.393 38.024 11.345 19.313 28.673 30.906 51.029 35.088 16.704 3.125 33.169 1.691 49.667-.808 33.502-5.076 52.489-29.65 48.898-63.611-1.049-9.917-3.054-19.74-4.822-29.57-1.887-10.486-4.622-20.855-5.917-31.406-3.49-28.451 18.32-52.876 46.745-52.954 16.286-.045 25.181 7.903 25.39 24.015.138 10.62-1.232 21.256-1.858 31.889-.86 14.619-2.104 29.234-2.354 43.865-.254 14.887 3.359 29.2 10.459 42.27 12.476 22.966 31.468 35.63 58.302 34.876 18.972-.533 36.885-5.259 53.593-14.183 16.629-8.882 28.172-22.36 33.481-40.493 4.862-16.61 8.872-33.47 14.025-53.453m974.275 61.889l13.194-17.564c8.471-11.338 11.005-24.1 8.641-37.856-1.238-7.202-2.686-14.404-4.633-21.442-4.839-17.497-13.338-33.354-22.783-48.716-13.657-22.212-30.009-42.391-47.054-62.047-2.952-3.404-5.401-7.242-8.747-11.782l27-24.747c22.47-19.543 35.667-44.497 42.792-72.934 5.383-21.481 6.892-43.312 5.365-65.448-2.41-34.952-12.017-68.013-24.416-100.566-9.883-25.947-26.67-46.017-49.387-61.144-36.26-24.144-77.386-33.422-119.876-31.342-36.447 1.784-72.69 8.746-108.879 14.351-19.838 3.072-38.712 9.937-55.978 20.507-24.029 14.711-39.106 35.478-43.625 63.75-5.79 36.225-9.419 72.665-11.503 109.252l-4.872 101.811c-3.484 63.92-3.263 127.88-2.36 191.844.245 17.361 2.503 34.54 7.781 51.205 5.096 16.092 14.788 28.537 30.405 35.127 12.832 5.415 26.073 10.114 39.494 13.821 25.543 7.055 49.905 2.134 73.978-7.991 21.555-9.066 33.572-25.091 39.7-46.861 4.583-16.279 5.099-32.817 4.766-49.525-.071-3.533-2.329-7.692 2.775-11.413l7.199 11.369c8.996 14.791 17.118 30.203 27.157 44.245 9.638 13.48 20.127 26.754 32.208 38.008 32.069 29.876 60.863 34.069 101.736 10.327 14.536-8.443 26.812-19.691 39.922-34.239m464.07-327.691c10.072-18.757 21.171-37.047 29.974-56.382 13.104-28.784 19.215-59.271 19.408-91.161.231-37.989-22.563-74.032-67.017-86.171-14.264-3.895-28.85-4.433-43.526-5.223-17.374-.935-31.005 5.783-43.141 17.183-11.297 10.612-20.06 23.139-27.558 36.575-15.651 28.044-27.395 57.726-36.569 88.456-4.203 14.077-7.495 28.285-7.797 43.117-.178 8.765-2.334 11.59-7.304 12.076-6.048.592-9.728-3.496-9.379-12.233l3.165-57.861 1.689-65.891c.35-12.852-5.294-23.121-13.562-32.306-8.734-9.701-19.726-15.771-32.109-19.349-14.243-4.117-28.878-5.521-43.555-3.776-39.325 4.676-66.305 25.438-79.816 62.935-2.703 7.501-5.187 15.18-6.731 22.983-5.429 27.429-11.385 54.807-15.357 82.461-9.679 67.379-13.513 135.197-12.473 203.271.662 43.355 3.257 86.551 11.875 129.164 4.106 20.3 9.931 40.074 19.802 58.461 10.241 19.077 25.192 32.876 46.147 38.79 31.357 8.851 61.923 6.094 91.408-8.185 11.407-5.524 19.032-13.879 23.393-25.858 9.061-24.889 11.897-50.489 9.445-76.683-1.49-15.907-3.884-31.728-5.739-47.603-.603-5.155-2.496-10.561 2.22-15.708 7.665-.986 13.815 1.613 17.212 9.364 1.601 3.653 2.646 7.545 4.124 11.257 17.853 44.82 41.386 86.545 70.193 125.136 8.67 11.614 19.619 21.699 30.432 31.48 7.455 6.743 16.855 10.7 27.438 10.386 30.096-.892 54.785-11.474 68.511-39.955 4.867-10.1 8.559-20.932 11.45-31.786 6.592-24.753 1.587-49-5.355-72.82-7.856-26.956-19.223-52.568-32.585-77.195-13.022-24-26.967-47.499-40.396-71.281-2.226-3.942-3.883-8.206-5.933-12.6l48.018-73.069m1803.388 288.162c7.581 24.016 23.086 41.975 44.04 55.003 11.811 7.344 24.508 13.517 37.37 18.858 20.99 8.716 43.214 13.246 65.493 17.625 20.017 3.934 39.736 3.749 59.496-.621 44.513-9.844 83.749-30.258 118.319-59.771 5.051-4.312 9.67-9.196 14.082-14.175 24.539-27.696 36.608-59.956 35.053-97.097l-1.249-27.967c-.702-29.509-9.908-56.215-26.224-80.621-13.449-20.118-29.519-37.907-48.837-52.457l-85.24-62.969c-5.87-4.353-11.917-8.697-16.901-13.972-14.706-15.565-17.555-38.476-8.062-57.652 2.563-5.176 6.372-8.753 11.914-9.646 5.2-.839 10.602-1.147 15.852-.781 8.152.568 13.587 5.01 15.4 13.249 1.145 5.205 1.793 10.548 3.318 15.633 3.154 10.525 8.229 20.319 18.975 24.443 27.644 10.609 46.284 8.257 65.222-8.427 11.278-9.935 18.193-22.805 25.582-35.474 12.431-21.314 11.19-42.261-2.627-62.027-9.514-13.608-20.166-26.503-31.141-38.986-12.063-13.721-27.366-23.192-44.265-30.115-20.585-8.431-42.022-13.193-64.195-13.513-80.968-1.168-142.072 34.698-185.737 101.566-18.376 28.14-26.692 59.842-24.687 93.254 4.403 73.374 33.72 133.584 96.542 175l25.228 16.219 28.44 18.613c3.849 2.598 7.683 5.389 10.924 8.683 10.15 10.313 9.556 24.042-1.905 33.008-4.586 3.587-10.328 6.507-15.979 7.75-10.429 2.293-21.242 3.004-31.479-1.388-11.008-4.724-21.908-9.713-32.751-14.807-9.645-4.531-19.15-9.361-28.714-14.065-12.525-6.159-23.388-2.729-32.914 6.214-12.367 11.61-18.807 25.954-16.683 43.032 1.889 15.183 4.877 30.229 8.341 48.38M887.798 2737.772c-18.128 13.829-34.098 29.807-47.398 48.336-22.039 30.703-34.247 64.85-32.518 102.827 3.31 72.666 31.326 132.726 92.601 174.802 16.463 11.305 33.564 21.678 50.238 32.684 6.099 4.027 12.278 8.141 17.597 13.099 11.165 10.406 10.345 25.186-2.202 34.151-5.226 3.734-11.772 6.386-18.093 7.65-11.227 2.245-22.585 1.571-33.242-3.491l-30.605-14.675-26.977-13.02c-10.994-5.365-20.975-2.717-29.681 4.652-14.096 11.931-21.226 27.239-19.144 45.933 1.325 11.9 3.112 23.781 5.372 35.539 4.579 23.826 16.761 43.202 35.497 58.557 14.06 11.522 29.859 19.966 46.693 26.562 22.413 8.781 45.749 14.032 69.332 18.604 15.954 3.093 31.902 3.743 47.674.952 51.85-9.176 97.307-31.833 135.332-68.231 32.86-31.455 46.193-70.715 42.405-115.911-.556-6.631-1.426-13.254-1.598-19.896-.749-28.888-10.479-54.711-26.468-78.401-13.519-20.031-29.661-37.726-49.004-52.231l-82.002-60.488c-5.882-4.348-11.964-8.568-17.194-13.632-15.73-15.231-19.541-36.599-11.404-57.046 3.39-8.517 9.263-12.68 18.002-13.361 3.303-.257 6.671-.333 9.96-.001 9.82.992 14.208 4.829 16.646 14.333 1.651 6.435 2.691 13.064 4.813 19.333 2.854 8.427 7.807 15.908 16.25 19.367 25.358 10.39 45.948 9.725 65.337-7.152 11.335-9.866 18.558-22.482 25.854-35.2 12.537-21.855 12.023-43.457-2.491-63.867-9.616-13.521-20.406-26.268-31.343-38.773-11.591-13.252-26.363-22.248-42.548-29.046-21.136-8.877-43.172-13.607-66.025-14.067-46.759-.943-89.485 11.478-129.664 41.107m2701.793 530.658c17.018 22.439 40.176 34.317 67.398 39.251 16.451 2.983 33.016 4.65 49.729 3.628 60.151-3.676 106.241-31.76 139.523-81.374 10.575-15.764 16.655-33.355 16.747-52.595.116-24.362-10.431-40.517-33.244-49.318-7.275-2.806-15.439-4.048-23.276-4.45-7.898-.406-15.916.936-23.841 1.861-5.978.698-10.245-1.817-13.91-6.093-5.052-5.895-7.247-12.898-6.38-20.402 1.746-15.115 4.094-30.16 6.099-44.564 2.106-1.164 3.229-2.308 4.374-2.33 5.966-.118 11.998-.479 17.897.202 43.453 5.017 82.904-33.273 91.471-63.888 3.625-12.952 5.414-26.184 2.965-39.521-.931-5.07-2.583-10.632-5.684-14.571-14.712-18.688-33.601-29.871-58.061-30.514-19.178-.504-36.864 3.765-53.361 13.789-7.284 4.426-16.574-.04-18.823-8.239-.688-2.508-.833-5.277-.667-7.89l3.365-47.848c.477-5.914 1.166-11.94 6.881-17.136l21.001-.877c14.133-.407 27.931-2.837 40.855-8.506 32.809-14.39 49.8-42.848 42.155-83.315-2.945-15.586-12.118-26.459-27.243-31.797-5-1.764-10.173-3.16-15.37-4.218-17.805-3.624-35.794-3.498-53.731-1.476-15.874 1.789-31.629 4.643-47.506 6.391l-105.369 10.685c-11.168.922-19.083 5.574-25.016 14.079-4.923 7.057-9.929 14.421-12.899 22.393-4.857 13.044-9.646 26.459-11.702 40.132-5.146 34.23-9.247 68.64-12.857 103.073-8.01 76.405-8.844 152.953-2.546 229.528 2.458 29.894 6.243 59.606 14.74 88.55 4.952 16.87 11.886 32.513 26.287 47.361m676.264-357.143l50.706-11.139c16.999-3.398 26.602-14.25 31.477-29.988 7.462-24.093 8.537-48.342 1.146-72.736-4.589-15.143-13.244-27.494-25.173-37.663-9.197-7.84-19.362-14.081-30.761-18.257l-60.007-22.028c-4.975-1.789-10.166-3.189-15.375-4.081-52.88-9.054-105.948-11.01-159.137-3.118-31.151 4.622-61.272 13.107-89.144 28.027-9.878 5.288-19.426 11.777-27.757 19.245-15.125 13.558-22.165 31.104-21.959 51.646.157 15.703 5.008 29.987 10.943 44.244 9.04 21.719 25.042 35.634 46.604 43.832 17.574 6.681 35.751 10.416 54.537 11.313 5.147.245 10.272.939 16.001 1.484 1.082 8.36-.63 15.448-1.436 22.594-2.015 17.864-4.829 35.702-5.624 53.626l-6.349 173.715c-.774 26.058 1.689 51.9 9.499 77.001 9.835 31.614 30.684 52.26 61.927 62.797 14.664 4.946 29.813 6.764 45.123 7.873 24.103 1.745 42.63-7.95 56.538-27.309 9.448-13.151 15.571-27.864 20.262-43.218 7.043-23.055 10.588-46.737 11.833-70.753 1.903-36.71-.712-73.166-5.659-109.578-5.02-36.947-9.1-74.025-13.269-111.082-.944-8.388-2.734-17.061.725-25.317 13.414-6.272 27.483-7.377 44.331-11.13m-974.981 380.297c51.656 10.278 102.011 5.014 151.49-12.231 18.579-6.476 32.173-18.429 41.751-35.262 9.371-16.468 15.011-34.354 16.225-53.106 1.353-20.91-2.752-41.301-12.76-59.859-9.529-17.67-24.161-27.591-45.211-27.439-18.84.136-37.165 2.462-55.077 8.274-4.291 1.392-8.725 2.347-13.842 3.701-3.591-12.032-2.319-23.336-1.573-34.383l10.165-139.51c3.316-49.321 1.981-98.478-5.372-147.49-2.943-19.618-10.075-36.941-20.965-53.3-7.905-11.875-18.264-18.933-32.128-21.559-26.868-5.088-53.086-2.202-78.716 6.524-12.315 4.193-22.165 12.131-29.335 23.084-9.918 15.151-17.829 31.105-20.886 49.267-5.762 34.226-9.146 68.724-10.221 103.338-1.24 39.947-.801 79.944-1.213 119.918-.144 13.985-1.03 27.97-.92 41.95l1.602 93.863c.848 20.751 6.378 40.757 14.743 59.839 14.374 32.788 38.216 55.682 71.871 68.135 5.615 2.077 11.402 3.688 20.372 6.248z"/><path fill="#fdfeff" d="M2141.999 3269.872c-7.04 5.139-12.564 10.646-19.207 13.022-30.324 10.846-61.107 12.562-92.05 2.026-11.747-4-20.794-11.032-28.144-21.228-10.761-14.927-18.483-30.755-20.264-49.263-.561-5.832-1.791-11.599-2.651-16.996-18.025-3.921-46.432-3.008-64.69 2.026-.147 2.908-.772 6.148-.395 9.268 2.998 24.808-3.591 47.702-14.624 69.375-9.721 19.097-26.534 29.542-47.137 33.615-22.774 4.502-45.52 1.663-67.107-5.396-18.146-5.934-31.497-19.581-41.789-35.755-13.893-21.834-20.175-46.208-23.885-71.473-3.991-27.174-4.558-54.491-2.558-81.784l10.729-127.448c8.087-75.199 29.801-146.05 70.98-210.181 5.398-8.407 11.122-16.611 16.868-24.787 24.296-34.569 57.624-55.017 99.152-61.326 33.954-5.159 67.787-3.761 100.911 6.42 30.934 9.508 56.125 27.145 75.575 53.063 14.984 19.966 25.956 41.902 32.426 65.975 22.365 83.209 38.533 167.5 42.865 253.743 2.819 56.133-1.062 111.875-11.148 167.178-1.946 10.671-5.703 20.513-13.857 29.927m-179.864-350.479c-2.691-22.947-1.63-46.359-7.621-68.878-12.037 1.264-13.326 1.78-14.825 9.836-2.311 12.422-4.327 24.922-5.828 37.466l-13.154 115.009c-.787 7.238-.66 14.656-.148 21.934.589 8.375 6.401 13.329 14.86 12.515 9.164-.881 18.229-2.738 26.397-5.894 4.274-20.403 4.47-67.309.318-121.987z"/><path fill="#fefeff" d="M4835.316 3167.271l-10.561 75.018c-3.768 23.686-18.764 37.692-41.153 43.94-20.089 5.606-40.61 6.635-61.411 4.32-35.726-3.977-55.69-25.945-66.189-58.084-3.473-10.632-4.26-22.142-6.457-34.252-.673-.444-2.214-2.291-3.919-2.457-19.889-1.943-39.656-.764-60.625 2.049-.283 5.157-1.062 9.613-.676 13.966 1.814 20.479-2.921 39.639-10.704 58.354-10.456 25.142-29.679 38.498-56.08 42.372-20.864 3.061-41.319-.299-61.274-5.707-10.944-2.967-19.978-10.488-28.167-18.47-11.145-10.865-19.157-23.796-25.036-38.151-8.93-21.803-13.235-44.623-15.181-67.971-2.72-32.649-.854-65.293 1.194-97.847 2.843-45.198 6.859-90.318 14.813-134.989 12.454-69.944 38.778-133.955 79.976-192.035 30.451-42.929 71.948-63.928 123.792-66.031 26.093-1.058 51.898.575 77.107 8.308 32.338 9.92 58.451 28.371 78.348 55.721 13.461 18.503 23.708 38.614 29.797 60.661 21.146 76.571 36.297 154.283 42.388 233.557 2.962 38.563 2.416 77.232.016 117.731m-236.312-235.06l-9.06 91.463c-.32 3.295-.274 6.677.052 9.975.943 9.535 6.618 14.768 15.995 13.656 8.498-1.008 16.848-3.255 24.562-4.815 7.579-22.882 7.061-52.323-2.793-174.084-.52-6.415.766-13.573-5.357-18.404-11.867 3.306-12.411 3.48-13.864 13.327l-9.534 68.882z"/><path d="M1649.106 3197.432l-13.641 51.836c-5.308 18.133-16.852 31.611-33.481 40.493-16.708 8.924-34.62 13.65-53.593 14.183-26.834.754-45.826-11.909-58.302-34.876-7.099-13.069-10.713-27.382-10.459-42.27.25-14.631 1.494-29.246 2.354-43.865.626-10.633 1.996-21.269 1.858-31.889-.21-16.111-9.104-24.059-25.39-24.015-28.425.078-50.235 24.503-46.745 52.954 1.294 10.551 4.03 20.92 5.917 31.406 1.769 9.83 3.774 19.653 4.822 29.57 3.591 33.961-15.396 58.535-48.898 63.611-16.499 2.5-32.963 3.934-49.667.808-22.356-4.183-39.684-15.775-51.029-35.088-7.029-11.965-12.75-24.922-17.393-38.024-14.822-41.826-21.323-85.353-22.065-129.496l-1.205-209.879a417.36 417.36 0 0 1 11.702-97.024c1.407-5.82 3.292-11.523 4.929-17.288 6.041-21.283 19.996-35.573 39.486-45.158 15.818-7.779 32.612-12.344 50.056-12.297 15.902.043 31.86 1.892 47.679 3.868 16.729 2.09 27.351 12.353 33.853 27.62 7.475 17.554 10.19 35.781 8.891 54.695l-4.857 69.781c-.432 6.64-.374 13.319-.367 19.98.011 10.467 4.386 19.394 10.418 27.559 5.24 7.094 12.451 9.688 21.135 8.06 12.65-2.372 22.255-7.944 25.656-21.7 2.11-8.534 3.018-16.869 2.459-25.653l-4.968-89.779c-.948-18.176 5.099-34.032 16.472-48 8.503-10.442 18.656-19.078 30.198-25.895 4.49-2.652 9.673-4.6 14.79-5.635 19.721-3.99 39.752-4.381 59.732-3.123 16.886 1.062 30.604 9.039 40.468 22.734 4.235 5.879 7.919 12.463 10.379 19.26 11.144 30.791 19.597 62.146 20.326 95.283l4.004 133.87c1.212 71.676-8.165 142.196-25.525 213.38zm973.718 61.333c-12.169 13.487-24.445 24.735-38.981 33.178-40.874 23.742-69.668 19.549-101.736-10.327-12.081-11.255-22.57-24.528-32.208-38.008-10.04-14.042-18.162-29.453-27.157-44.245-2.294-3.772-4.72-7.463-7.199-11.369-5.104 3.721-2.846 7.88-2.775 11.413.333 16.708-.183 33.246-4.766 49.525-6.128 21.77-18.145 37.795-39.7 46.861-24.073 10.125-48.434 15.046-73.978 7.991-13.421-3.707-26.663-8.406-39.494-13.821-15.616-6.59-25.308-19.035-30.405-35.127-5.278-16.665-7.535-33.844-7.781-51.205-.903-63.965-1.124-127.924 2.36-191.844l4.872-101.811c2.083-36.588 5.712-73.028 11.503-109.252 4.519-28.272 19.596-49.039 43.625-63.75 17.265-10.57 36.14-17.435 55.978-20.507 36.189-5.604 72.432-12.567 108.879-14.351 42.49-2.08 83.616 7.198 119.876 31.342 22.718 15.127 39.504 35.198 49.387 61.144 12.399 32.553 22.006 65.613 24.416 100.566 1.526 22.136.018 43.967-5.365 65.448-7.126 28.437-20.322 53.391-42.792 72.934-8.989 7.817-17.582 16.089-27 24.747 3.346 4.539 5.795 8.378 8.747 11.782 17.045 19.656 33.397 39.835 47.054 62.047 9.445 15.362 17.944 31.22 22.783 48.716 1.947 7.038 3.395 14.24 4.633 21.442 2.365 13.756-.17 26.518-8.641 37.856l-14.135 18.625m-159.41-331.389c-2.564-14.963-9.988-27.48-20.128-38.37-14.974-16.082-18.103-23.933-45.046-4.878-.526.372-.872 1-1.302 1.509-2.349 15.955-2.094 92.627.416 111.762 1.874 0 3.979.526 5.681-.081 18.562-6.622 34.412-17.432 47.409-32.172 8.607-9.762 13.882-21.095 12.971-37.769zm623.615 3.842l-47.212 71.863c2.05 4.394 3.707 8.658 5.933 12.6l40.396 71.281c13.362 24.627 24.729 50.239 32.585 77.195 6.942 23.819 11.947 48.067 5.355 72.82-2.891 10.854-6.582 21.686-11.45 31.786-13.727 28.481-38.415 39.063-68.511 39.955-10.582.314-19.983-3.643-27.438-10.386-10.813-9.781-21.762-19.866-30.432-31.48-28.808-38.591-52.341-80.316-70.193-125.136-1.478-3.711-2.523-7.604-4.124-11.257-3.397-7.751-9.547-10.35-17.212-9.364-4.716 5.147-2.823 10.554-2.22 15.708l5.739 47.603c2.453 26.194-.384 51.793-9.445 76.683-4.361 11.978-11.986 20.334-23.393 25.858-29.486 14.279-60.052 17.036-91.408 8.185-20.955-5.914-35.906-19.714-46.147-38.79-9.871-18.387-15.697-38.161-19.802-58.461-8.618-42.613-11.213-85.809-11.875-129.164-1.04-68.074 2.794-135.891 12.473-203.271 3.972-27.654 9.928-55.032 15.357-82.461 1.544-7.803 4.028-15.482 6.731-22.983 13.511-37.497 40.491-58.259 79.816-62.935 14.677-1.745 29.312-.34 43.555 3.776 12.383 3.579 23.374 9.648 32.109 19.349 8.269 9.185 13.912 19.454 13.563 32.306l-1.689 65.891-3.165 57.861c-.348 8.737 3.332 12.826 9.379 12.233 4.969-.487 7.125-3.311 7.304-12.076.302-14.832 3.595-29.04 7.797-43.117 9.174-30.73 20.918-60.412 36.569-88.456 7.499-13.436 16.261-25.963 27.558-36.575 12.136-11.4 25.767-18.118 43.141-17.183 14.677.79 29.262 1.328 43.526 5.223 44.454 12.139 67.248 48.182 67.017 86.171-.194 31.89-6.305 62.377-19.408 91.161-8.802 19.335-19.902 37.624-30.78 57.587zm1803.714 285.435c-2.983-16.629-5.972-31.675-7.861-46.858-2.124-17.079 4.316-31.422 16.683-43.032 9.526-8.944 20.389-12.373 32.914-6.214l28.714 14.065 32.751 14.807c10.237 4.393 21.049 3.682 31.479 1.388 5.651-1.243 11.393-4.163 15.979-7.75 11.461-8.966 12.055-22.696 1.905-33.008-3.241-3.294-7.076-6.084-10.924-8.683l-28.44-18.613-25.228-16.219c-62.821-41.416-92.139-101.625-96.542-175-2.004-33.412 6.312-65.114 24.688-93.254 43.665-66.868 104.769-102.735 185.737-101.566 22.173.32 43.61 5.082 64.195 13.513 16.899 6.922 32.202 16.393 44.265 30.115 10.975 12.483 21.626 25.378 31.141 38.986 13.817 19.765 15.058 40.713 2.627 62.027-7.389 12.669-14.304 25.539-25.582 35.474-18.938 16.684-37.579 19.036-65.222 8.427-10.747-4.125-15.821-13.918-18.975-24.443-1.524-5.085-2.173-10.428-3.318-15.633-1.812-8.239-7.248-12.681-15.4-13.249-5.25-.366-10.652-.058-15.852.781-5.542.894-9.351 4.47-11.914 9.646-9.493 19.176-6.644 42.087 8.062 57.652 4.984 5.275 11.031 9.62 16.901 13.972l85.24 62.969c19.318 14.55 35.388 32.339 48.837 52.457 16.315 24.406 25.521 51.113 26.224 80.621.222 9.327.858 18.643 1.249 27.967 1.556 37.141-10.514 69.401-35.053 97.097-4.412 4.979-9.031 9.864-14.082 14.175-34.57 29.513-73.806 49.927-118.319 59.771-19.759 4.37-39.479 4.555-59.496.621-22.279-4.379-44.503-8.909-65.493-17.625-12.862-5.341-25.559-11.514-37.37-18.858-20.954-13.029-36.459-30.987-44.52-56.526zM888.944 2736.912c39.033-28.769 81.759-41.19 128.518-40.247 22.853.461 44.889 5.19 66.025 14.067 16.186 6.798 30.958 15.793 42.548 29.046 10.937 12.505 21.727 25.252 31.343 38.773 14.514 20.409 15.028 42.012 2.491 63.867-7.296 12.719-14.519 25.334-25.854 35.2-19.389 16.877-39.979 17.542-65.337 7.152-8.443-3.46-13.396-10.94-16.25-19.367-2.123-6.268-3.162-12.897-4.813-19.333-2.438-9.504-6.826-13.341-16.646-14.333-3.289-.332-6.657-.256-9.96.001-8.738.68-14.612 4.844-18.002 13.361-8.138 20.447-4.327 41.814 11.404 57.046 5.23 5.063 11.311 9.283 17.194 13.632l82.002 60.488c19.343 14.506 35.485 32.2 49.004 52.231 15.989 23.69 25.719 49.513 26.468 78.401.172 6.641 1.042 13.264 1.598 19.896 3.789 45.196-9.545 84.455-42.405 115.911-38.024 36.398-83.481 59.055-135.332 68.231-15.772 2.791-31.721 2.141-47.674-.952-23.583-4.572-46.919-9.823-69.332-18.604-16.834-6.596-32.633-15.039-46.693-26.562-18.736-15.355-30.918-34.732-35.497-58.557a455.52 455.52 0 0 1-5.372-35.539c-2.082-18.694 5.048-34.002 19.144-45.933 8.706-7.369 18.687-10.017 29.681-4.652l26.977 13.02 30.605 14.675c10.657 5.062 22.015 5.736 33.242 3.491 6.322-1.264 12.867-3.917 18.093-7.65 12.547-8.965 13.367-23.745 2.202-34.151-5.319-4.958-11.497-9.073-17.597-13.099l-50.238-32.684c-61.275-42.077-89.291-102.137-92.601-174.802-1.73-37.978 10.479-72.124 32.518-102.827 13.3-18.529 29.27-34.507 48.545-49.196zm2699.708 530.449c-13.461-13.778-20.395-29.421-25.347-46.291-8.497-28.944-12.281-58.655-14.74-88.55-6.298-76.575-5.463-153.123 2.546-229.528 3.61-34.433 7.711-68.843 12.857-103.073 2.056-13.673 6.845-27.088 11.702-40.132 2.969-7.973 7.976-15.336 12.899-22.393 5.932-8.505 13.847-13.157 25.016-14.079 35.178-2.904 70.277-6.822 105.369-10.685 15.877-1.748 31.632-4.601 47.506-6.391 17.938-2.022 35.926-2.148 53.731 1.476 5.197 1.058 10.371 2.454 15.37 4.218 15.125 5.337 24.299 16.21 27.243 31.797 7.646 40.466-9.345 68.925-42.155 83.315-12.924 5.668-26.722 8.098-40.855 8.506l-21.001.877c-5.714 5.196-6.404 11.222-6.881 17.136l-3.365 47.848c-.166 2.614-.022 5.382.667 7.89 2.249 8.198 11.539 12.665 18.823 8.239 16.497-10.024 34.182-14.293 53.361-13.789 24.461.643 43.349 11.826 58.061 30.514 3.101 3.939 4.753 9.502 5.684 14.571 2.449 13.338.659 26.569-2.965 39.521-8.567 30.614-48.018 68.904-91.471 63.888-5.899-.681-11.931-.32-17.897-.202-1.145.022-2.268 1.166-4.374 2.33l-6.099 44.564c-.867 7.504 1.327 14.507 6.38 20.402 3.665 4.277 7.932 6.791 13.91 6.093 7.925-.925 15.943-2.267 23.841-1.861 7.837.402 16.001 1.644 23.276 4.45 22.813 8.801 33.36 24.956 33.244 49.318-.092 19.24-6.171 36.831-16.747 52.595-33.282 49.614-79.373 77.698-139.523 81.374-16.713 1.021-33.277-.646-49.729-3.628-27.222-4.934-50.38-16.812-68.338-40.321zm675.537-355.797c-15.182 3.476-29.25 4.581-42.665 10.853-3.458 8.256-1.668 16.928-.725 25.317l13.269 111.082c4.947 36.411 7.562 72.868 5.659 109.578-1.245 24.016-4.79 47.698-11.833 70.753-4.69 15.354-10.814 30.066-20.262 43.218-13.908 19.359-32.435 29.054-56.538 27.309-15.31-1.108-30.458-2.927-45.123-7.873-31.243-10.537-52.092-31.182-61.927-62.797-7.809-25.102-10.272-50.944-9.499-77.001l6.349-173.715c.795-17.924 3.609-35.762 5.624-53.626.806-7.146 2.517-14.234 1.436-22.594-5.729-.545-10.854-1.239-16.001-1.484-18.786-.897-36.962-4.632-54.537-11.313-21.562-8.197-37.565-22.113-46.604-43.832-5.934-14.258-10.786-28.542-10.943-44.244-.205-20.542 6.834-38.088 21.959-51.646 8.331-7.467 17.878-13.956 27.757-19.245 27.872-14.92 57.993-23.405 89.144-28.027 53.189-7.892 106.257-5.936 159.137 3.118 5.209.892 10.4 2.292 15.375 4.081l60.007 22.028c11.399 4.176 21.564 10.417 30.761 18.257 11.929 10.169 20.584 22.52 25.173 37.663 7.391 24.395 6.317 48.644-1.146 72.736-4.875 15.738-14.478 26.59-31.477 29.988-16.966 3.391-33.809 7.4-52.372 11.416zm-974.946 379.653c-7.339-2.193-13.126-3.804-18.74-5.881-33.655-12.453-57.497-35.347-71.871-68.135-8.365-19.082-13.895-39.088-14.743-59.839-1.277-31.258-1.356-62.571-1.602-93.863-.11-13.98.775-27.965.92-41.95l1.213-119.918c1.074-34.614 4.459-69.112 10.221-103.338 3.058-18.162 10.968-34.115 20.886-49.267 7.17-10.953 17.02-18.892 29.335-23.084 25.63-8.726 51.848-11.613 78.716-6.524 13.864 2.626 24.223 9.684 32.128 21.559 10.89 16.359 18.022 33.682 20.965 53.3 7.352 49.013 8.687 98.17 5.372 147.49l-10.165 139.51c-.746 11.047-2.017 22.351 1.573 34.383 5.117-1.354 9.551-2.308 13.842-3.701 17.912-5.811 36.238-8.138 55.077-8.274 21.051-.152 35.682 9.769 45.211 27.439 10.008 18.558 14.113 38.949 12.76 59.859-1.213 18.752-6.854 36.638-16.225 53.106-9.578 16.833-23.172 28.786-41.751 35.262-49.479 17.246-99.834 22.51-153.122 11.864z" fill="#fdfeff"/><path fill="#34adff" d="M1962.328 2921.272c3.959 52.799 3.763 99.705-.511 120.108-8.169 3.156-17.234 5.013-26.397 5.894-8.458.813-14.271-4.141-14.86-12.515-.512-7.278-.64-14.696.148-21.934l13.154-115.009c1.501-12.544 3.516-25.044 5.828-37.466 1.499-8.056 2.788-8.572 14.825-9.836 5.99 22.519 4.93 45.931 7.813 70.758z"/><path fill="#37aeff" d="M4599.237 2930.428l9.301-67.099c1.453-9.847 1.997-10.021 13.864-13.327 6.124 4.831 4.838 11.989 5.357 18.404 9.854 121.761 10.372 151.202 2.793 174.084-7.713 1.559-16.063 3.806-24.562 4.815-9.377 1.113-15.052-4.121-15.995-13.656-.326-3.297-.372-6.679-.052-9.975l9.292-93.247z"/><path fill="#31acff" d="M2463.535 2928.986c.791 15.065-4.484 26.398-13.091 36.159-12.997 14.74-28.847 25.55-47.409 32.172-1.701.607-3.807.081-5.681.081-2.51-19.135-2.765-95.807-.416-111.762.43-.509.776-1.136 1.302-1.509 26.943-19.055 30.072-11.204 45.046 4.878 10.14 10.89 17.564 23.407 20.249 39.98z"/>
</svg>